HIERARCHY
ROOT Hips
{
	OFFSET 0.00000 0.00000 0.00000
	CHANNELS 6 Xposition Yposition Zposition Zrotation Yrotation Xrotation 
	JOINT LHipJoint
	{
		OFFSET 0 0 0
		CHANNELS 3 Zrotation Yrotation Xrotation
		JOINT LeftHip
		{
			OFFSET 2.36090 -1.39315 1.24752
			CHANNELS 3 Zrotation Yrotation Xrotation
			JOINT LeftKnee
			{
				OFFSET 2.06810 -5.68207 0.00000
				CHANNELS 3 Zrotation Yrotation Xrotation
				JOINT LeftAnkle
				{
					OFFSET 2.46631 -6.77613 0.00000
					CHANNELS 3 Zrotation Yrotation Xrotation
					JOINT LeftToe
					{
						OFFSET 0.26031 -0.71520 1.99545
						CHANNELS 3 Zrotation Yrotation Xrotation
						End Site
						{
							OFFSET 0.00000 -0.00000 1.05957
						}
					}
				}
			}
		}
	}
	JOINT RHipJoint
	{
		OFFSET 0 0 0
		CHANNELS 3 Zrotation Yrotation Xrotation
		JOINT RightHip
		{
			OFFSET -2.25243 -1.39315 1.24752
			CHANNELS 3 Zrotation Yrotation Xrotation
			JOINT RightKnee
			{
				OFFSET -2.17343 -5.97145 0.00000
				CHANNELS 3 Zrotation Yrotation Xrotation
				JOINT RightAnkle
				{
					OFFSET -2.52372 -6.93386 0.00000
					CHANNELS 3 Zrotation Yrotation Xrotation
					JOINT RightToe
					{
						OFFSET -0.22538 -0.61923 2.11447
						CHANNELS 3 Zrotation Yrotation Xrotation
						End Site
						{
							OFFSET -0.00000 -0.00000 1.10506
						}
					}
				}
			}
		}
	}
	JOINT lowerback
	{
		OFFSET 0 0 0
		CHANNELS 3 Zrotation Yrotation Xrotation
		JOINT Chest
		{
			OFFSET 0.01594 2.13103 0.08007
			CHANNELS 3 Zrotation Yrotation Xrotation
			JOINT Chest2
			{
				OFFSET 0.01393 2.09723 0.18338
				CHANNELS 3 Zrotation Yrotation Xrotation
				JOINT lowerneck
				{
					OFFSET 0 0 0
					CHANNELS 3 Zrotation Yrotation Xrotation
					JOINT Neck
					{
						OFFSET 0.05351 1.38915 0.32494
						CHANNELS 3 Zrotation Yrotation Xrotation
						JOINT Head
						{
							OFFSET 0.00711 1.45992 -0.21666
							CHANNELS 3 Zrotation Yrotation Xrotation
							End Site
							{
								OFFSET -0.00433 1.47702 -0.11056
							}
						}
					}
				}
				JOINT LeftCollar
				{
					OFFSET 0 0 0
					CHANNELS 3 Zrotation Yrotation Xrotation
					JOINT LeftShoulder
					{
						OFFSET 2.87198 0.92249 0.11132
CHANNELS 3 Zrotation Xrotation Yrotation
						JOINT LeftElbow
						{
OFFSET 0 -5.527310 0.000000
CHANNELS 3 Zrotation Xrotation Yrotation
							JOINT LeftWrist
							{
OFFSET 0 -3.110590 0.000000
CHANNELS 3 Zrotation Xrotation Yrotation
								JOINT lhand
								{
									OFFSET 0 0 0
CHANNELS 3 Zrotation Xrotation Yrotation
									JOINT LFingers
									{
OFFSET 0 -0.419630 0.000000
CHANNELS 3 Zrotation Xrotation Yrotation
										End Site
										{
OFFSET 0 -0.338310 0.000000
										}
									}
								}
								JOINT LThumb
								{
OFFSET 0 0.000000 0.000000
CHANNELS 3 Zrotation Xrotation Yrotation
									End Site
									{
OFFSET 0 -0.343480 0.343480
									}
								}
							}
						}
					}
				}
				JOINT RightCollar
				{
					OFFSET 0 0 0
					CHANNELS 3 Zrotation Yrotation Xrotation
					JOINT RightShoulder
					{
						OFFSET -2.94710 0.68072 0.32187
CHANNELS 3 Zrotation Xrotation Yrotation
						JOINT RightElbow
						{
OFFSET 0 -5.253960 -0.000000
CHANNELS 3 Zrotation Xrotation Yrotation
							JOINT RightWrist
							{
OFFSET 0 -3.105670 0.000000
CHANNELS 3 Zrotation Xrotation Yrotation
								JOINT rhand
								{
									OFFSET 0 0 0
CHANNELS 3 Zrotation Xrotation Yrotation
									JOINT RFingers
									{
OFFSET 0 -0.498680 0.000000
CHANNELS 3 Zrotation Xrotation Yrotation
										End Site
										{
OFFSET 0 -0.402040 0.000000
										}
									}
								}
								JOINT RThumb
								{
OFFSET 0 0.000000 0.000000
CHANNELS 3 Zrotation Xrotation Yrotation
									End Site
									{
OFFSET 0 -0.408180 0.408180
									}
								}
							}
						}
					}
				}
			}
		}
	}
}
MOTION
Frames: 7
Frame Time: 0.008333333333333333
5.468600 15.747800 28.339200 -164.185000 -85.371400 -178.509000 0.000000 0.000000 0.000000 0.000000 0.000000 0.000000 0.000000 0.000000 0.000000 0.000000 0.000000 0.000000 0.000000 0.000000 0.000000 0.000000 0.000000 0.000000 18.613400 28.288900 -17.922300 -2.133200 -9.138100 26.228400 -0.354400 -10.055900 -19.018000 -0.035300 1.212300 -3.333300 -0.334500 0.887200 -26.893900 1.595300 0.386200 -7.574700 2.035700 -0.111200 6.436600 4.833700 2.947300 -17.258400 0.465800 2.049500 28.993900 -0.370900 1.305100 12.557700 0.000000 -0.000000 0.000000 -2.789600 -34.425100 -60.400200 159.212400 -31.579600 114.061700 22.606800 -47.405200 2.276800 0.000000 0.000000 0.000000 -7.125000 0.000000 0.000000 -3.061400 27.510000 -1.302900 0.000000 -0.000000 0.000000 3.765500 -38.100500 66.324000 -157.568500 -33.461300 -113.177800 -21.529000 -31.284700 16.723200 0.000000 0.000000 0.000000 7.125000 0.000000 -0.000000 6.087800 47.786000 -0.419900
5.464160 15.747299 28.336550 -163.904252 -85.393244 -178.806220 0.000000 0.000000 0.000000 0.000000 0.000000 0.000000 0.000000 0.000000 0.000000 0.000000 0.000000 0.000000 0.000000 0.000000 0.000000 0.000000 0.000000 0.000000 18.658735 28.291192 -17.859132 -2.130550 -9.132872 26.211784 -0.358053 -10.062847 -19.065985 -0.031719 1.148344 -3.157045 -0.431115 0.791158 -26.953416 1.680455 0.287150 -7.478658 2.155877 -0.157394 6.574754 4.041375 2.793963 -17.637553 1.253685 1.828196 28.830751 0.033749 1.230115 12.544307 0.000000 0.000000 0.000000 -3.067770 -34.266750 -60.521237 159.311879 -31.462431 114.113696 22.344100 -47.431484 2.361955 0.000000 0.000000 0.000000 -7.125000 0.000000 0.000000 -3.261719 27.422266 -1.395361 0.000000 0.000000 0.000000 3.988881 -37.841023 66.624443 -157.752633 -33.255251 -113.278927 -21.875494 -31.366418 16.553176 0.000000 0.000000 0.000000 7.125000 0.000000 0.000000 5.718889 47.656727 -0.376499
5.460238 15.746581 28.334938 -163.755382 -85.421444 -178.973725 0.000000 0.000000 0.000000 0.000000 0.000000 0.000000 0.000000 0.000000 0.000000 0.000000 0.000000 0.000000 0.000000 0.000000 0.000000 0.000000 0.000000 0.000000 18.692871 28.263217 -17.807033 -2.128073 -9.127903 26.196163 -0.359759 -10.067503 -19.089799 -0.032073 1.155083 -3.175580 -0.522843 0.708175 -27.005148 1.754628 0.204618 -7.386638 2.266110 -0.195720 6.704606 3.639755 2.658570 -17.818759 1.707118 1.630674 28.529844 0.244127 1.162869 12.446988 0.000000 0.000000 0.000000 -3.365051 -34.107621 -60.690485 159.403186 -31.354644 114.161281 21.954365 -47.431393 2.449359 0.000000 0.000000 0.000000 -7.125000 0.000000 0.000000 -3.559153 27.334489 -1.530584 0.000000 0.000000 0.000000 4.159683 -37.574671 66.792100 -157.941220 -33.043106 -113.381999 -22.198899 -31.671550 16.292090 0.000000 0.000000 0.000000 7.125000 0.000000 0.000000 5.353307 47.426838 -0.322720
5.456850 15.745737 28.333784 -163.644636 -85.456267 -179.106753 0.000000 0.000000 0.000000 0.000000 0.000000 0.000000 0.000000 0.000000 0.000000 0.000000 0.000000 0.000000 0.000000 0.000000 0.000000 0.000000 0.000000 0.000000 18.724159 28.214795 -17.759970 -2.125650 -9.122986 26.180808 -0.360308 -10.071085 -19.099621 -0.033969 1.189578 -3.270620 -0.600474 0.649854 -27.040584 1.794476 0.153238 -7.304092 2.339861 -0.218999 6.815265 3.560523 2.541596 -17.863085 1.923286 1.442386 28.146866 0.307972 1.102159 12.298252 0.000000 0.000000 0.000000 -3.653659 -33.953657 -60.890842 159.487347 -31.255052 114.205006 21.454235 -47.424866 2.486860 0.000000 0.000000 0.000000 -7.125000 0.000000 0.000000 -3.942379 27.301986 -1.698156 0.000000 0.000000 0.000000 4.296970 -37.283615 66.824341 -158.127337 -32.832723 -113.483273 -22.467419 -32.092138 16.047398 0.000000 0.000000 0.000000 7.125000 0.000000 0.000000 5.044439 47.205940 -0.275220
5.454200 15.744949 28.331779 -163.348848 -85.500457 -179.433337 0.000000 0.000000 0.000000 0.000000 0.000000 0.000000 0.000000 0.000000 0.000000 0.000000 0.000000 0.000000 0.000000 0.000000 0.000000 0.000000 0.000000 0.000000 18.772645 28.164160 -17.704393 -2.123000 -9.117614 26.163978 -0.361311 -10.076313 -19.116595 -0.031892 1.152837 -3.169494 -0.636498 0.653005 -27.033279 1.730735 0.179451 -7.247656 2.299181 -0.204532 6.873420 3.733197 2.449995 -17.880846 2.071681 1.229748 27.795787 0.299163 1.047012 12.163536 0.000000 0.000000 0.000000 -3.861212 -33.821376 -61.089156 159.564696 -31.163236 114.245041 20.850914 -47.459887 2.328079 0.000000 0.000000 0.000000 -7.125000 0.000000 0.000000 -4.409838 27.480748 -1.882074 0.000000 0.000000 0.000000 4.438061 -36.915419 66.672222 -158.292849 -32.644364 -113.572797 -22.584158 -32.393584 16.093664 0.000000 0.000000 0.000000 7.125000 0.000000 0.000000 4.943886 47.271686 -0.277727
5.451376 15.744103 28.329831 -163.085594 -85.538429 -179.727387 0.000000 0.000000 0.000000 0.000000 0.000000 0.000000 0.000000 0.000000 0.000000 0.000000 0.000000 0.000000 0.000000 0.000000 0.000000 0.000000 0.000000 0.000000 18.819214 28.119393 -17.647248 -2.120467 -9.112533 26.148077 -0.362488 -10.079566 -19.133046 -0.030745 1.132363 -3.113102 -0.693670 0.621995 -27.034747 1.723115 0.161917 -7.183493 2.318922 -0.211444 6.945983 3.767078 2.365714 -17.928354 2.266845 1.057430 27.464811 0.338110 1.000464 12.041892 0.000000 0.000000 0.000000 -4.122446 -33.681020 -61.257144 159.642277 -31.070897 114.285134 20.284310 -47.448490 2.211245 0.000000 0.000000 0.000000 -7.125000 0.000000 0.000000 -4.849121 27.612277 -2.055651 0.000000 0.000000 0.000000 4.579732 -36.577260 66.632810 -158.453482 -32.460479 -113.659184 -22.753882 -32.729771 16.015429 0.000000 0.000000 0.000000 7.125000 0.000000 0.000000 4.766586 47.212467 -0.261003
5.448690 15.743214 28.327868 -162.813272 -85.575134 -180.031992 0.000000 0.000000 0.000000 0.000000 0.000000 0.000000 0.000000 0.000000 0.000000 0.000000 0.000000 0.000000 0.000000 0.000000 0.000000 0.000000 0.000000 0.000000 18.867715 28.071653 -17.588401 -2.117692 -9.106985 26.130698 -0.363646 -10.079774 -19.146107 -0.029903 1.116716 -3.070005 -0.753654 0.583450 -27.030738 1.727697 0.134140 -7.120978 2.350378 -0.223392 7.014440 3.806185 2.296153 -17.972057 2.442256 0.911077 27.144991 0.372749 0.962722 11.924924 0.000000 0.000000 0.000000 -4.395403 -33.541131 -61.404878 159.716792 -30.982032 114.323577 19.718287 -47.419037 2.087920 0.000000 0.000000 0.000000 -7.125000 0.000000 0.000000 -5.289274 27.749216 -2.226435 0.000000 0.000000 0.000000 4.721687 -36.241575 66.614313 -158.605163 -32.286163 -113.740443 -22.922596 -33.078830 15.908096 0.000000 0.000000 0.000000 7.125000 0.000000 0.000000 4.584290 47.121991 -0.240695
